<svg viewBox="0 0 300 300" fill="none" xmlns="http://www.w3.org/2000/svg">
<path d="M157.069 78.3132C121.181 73.3627 88.7414 100.8 84.6314 139.398C80.5215 178.248 132.336 264.756 132.85 265.596L133.07 266.015C135.052 270.294 138.501 270.798 141.29 267.106L141.657 266.77C142.391 266.099 210.572 196.539 214.756 157.271C218.792 118.673 192.958 83.2638 157.069 78.3132ZM196.408 154.586C194.206 175.646 161.693 216.174 140.116 238.577C123.823 210.804 100.704 162.473 102.906 141.58C105.842 113.974 129.107 94.4235 154.941 98.0315C180.702 101.556 199.27 126.98 196.408 154.586Z" fill="url(#paint0_linear_30897_21)"/>
<path d="M212.773 42.5689C212.553 39.1287 210.131 37.6184 207.489 39.2126C207.489 39.2126 177.105 57.4206 165.436 72.6079C169.179 73.6148 172.848 74.8734 176.298 76.4677C181.141 71.2654 189.948 63.7137 203.012 55.4068C205.434 76.0481 204.847 91.2354 203.379 98.1158C206.315 101.892 208.957 106.003 211.159 110.366C211.452 109.863 211.746 109.359 212.039 108.772C219.599 93.1653 212.773 42.5689 212.773 42.5689Z" fill="url(#paint1_linear_30897_21)"/>
<path d="M98.5022 90.3121C97.8417 83.2639 99.0159 68.1605 103.713 48.1066C115.676 58.1755 123.602 66.9858 127.859 72.8593C131.529 71.8525 135.272 71.0973 139.088 70.6777C129.18 53.8962 101.144 31.4089 101.144 31.4089C98.649 29.3951 96.1536 30.5698 95.4931 33.9261C95.4931 33.9261 83.0165 83.0121 88.6676 99.7097C88.8878 100.297 89.108 100.801 89.3282 101.304C92.1171 97.2765 95.1995 93.6685 98.5022 90.3121Z" fill="url(#paint2_linear_30897_21)"/>
<defs>
<linearGradient id="paint0_linear_30897_21" x1="136.348" y1="273.99" x2="150.293" y2="58.7795" gradientUnits="userSpaceOnUse">
<stop stop-color="#00A3FF"/>
<stop offset="1" stop-color="#0385FE"/>
</linearGradient>
<linearGradient id="paint1_linear_30897_21" x1="185.364" y1="112.017" x2="190.456" y2="31.4673" gradientUnits="userSpaceOnUse">
<stop stop-color="#00A3FF"/>
<stop offset="1" stop-color="#0385FE"/>
</linearGradient>
<linearGradient id="paint2_linear_30897_21" x1="107.812" y1="102.934" x2="112.612" y2="23.3723" gradientUnits="userSpaceOnUse">
<stop stop-color="#00A3FF"/>
<stop offset="1" stop-color="#0385FE"/>
</linearGradient>
</defs>
</svg>
